HIERARCHY
ROOT Hips
{
	OFFSET 0.000000 71.427986 0.000000
	CHANNELS 6 Xposition Yposition Zposition Xrotation Yrotation Zrotation
	JOINT Pelvis
	{
		OFFSET 0.000000 0.000000 0.000000
		CHANNELS 3 Xrotation Yrotation Zrotation
		JOINT LeftUpLeg
		{
			OFFSET 6.797100 -2.508499 -1.318700
			CHANNELS 3 Xrotation Yrotation Zrotation
			JOINT LeftLeg
			{
				OFFSET 0.069008 -29.241863 0.690200
				CHANNELS 3 Xrotation Yrotation Zrotation
				JOINT LeftFoot
				{
					OFFSET -0.069008 -29.568123 -0.266800
					CHANNELS 3 Xrotation Yrotation Zrotation
					JOINT LeftToeBase
					{
						OFFSET 3.145500 -8.631000 16.059900
						CHANNELS 3 Xrotation Yrotation Zrotation
						End Site
						{
							OFFSET 0.000000 18.501587 0.000000
						}
					}
				}
			}
			JOINT Left_ShortSleeve
			{
				OFFSET 0.265923 -10.480953 1.153800
				CHANNELS 3 Xrotation Yrotation Zrotation
				End Site
				{
					OFFSET 1.725763 19.823879 0.000000
				}
			}
		}
		JOINT RightUpLeg
		{
			OFFSET -6.797100 -2.508499 -1.318700
			CHANNELS 3 Xrotation Yrotation Zrotation
			JOINT RightLeg
			{
				OFFSET -0.082453 -29.241932 0.688000
				CHANNELS 3 Xrotation Yrotation Zrotation
				JOINT RightFoot
				{
					OFFSET 0.082453 -29.568058 -0.264600
					CHANNELS 3 Xrotation Yrotation Zrotation
					JOINT RightToeBase
					{
						OFFSET -3.115300 -8.682800 16.113400
						CHANNELS 3 Xrotation Yrotation Zrotation
						End Site
						{
							OFFSET 0.000000 18.567114 0.000000
						}
					}
				}
			}
			JOINT Right_ShortSleeve
			{
				OFFSET -0.265923 -10.480953 1.153800
				CHANNELS 3 Xrotation Yrotation Zrotation
				End Site
				{
					OFFSET -1.725766 19.823910 0.000000
				}
			}
		}
	}
	JOINT Spine
	{
		OFFSET 0.000000 13.368103 0.470500
		CHANNELS 3 Xrotation Yrotation Zrotation
		JOINT Spine1
		{
			OFFSET 0.147000 13.837402 0.538800
			CHANNELS 3 Xrotation Yrotation Zrotation
			JOINT Spine2
			{
				OFFSET 0.168000 16.242897 -1.435500
				CHANNELS 3 Xrotation Yrotation Zrotation
				JOINT Neck
				{
					OFFSET 0.217200 18.631500 -1.679100
					CHANNELS 3 Xrotation Yrotation Zrotation
					JOINT Head
					{
						OFFSET 0.000000 6.599396 1.385900
						CHANNELS 3 Xrotation Yrotation Zrotation
						JOINT Hat
						{
							OFFSET -0.532200 27.220596 -10.096100
							CHANNELS 3 Xrotation Yrotation Zrotation
							End Site
							{
								OFFSET 0.000000 22.029861 0.000000
							}
						}
						JOINT HairD
						{
							OFFSET -10.777400 17.437393 -1.325900
							CHANNELS 3 Xrotation Yrotation Zrotation
							JOINT HairD1
							{
								OFFSET -3.290299 -11.051193 1.062200
								CHANNELS 3 Xrotation Yrotation Zrotation
								End Site
								{
									OFFSET 0.000000 11.579437 0.000000
								}
							}
						}
						JOINT HairB
						{
							OFFSET -10.777400 17.437393 1.467900
							CHANNELS 3 Xrotation Yrotation Zrotation
							JOINT HairB1
							{
								OFFSET -1.561200 -12.956299 3.590200
								CHANNELS 3 Xrotation Yrotation Zrotation
								End Site
								{
									OFFSET 0.000000 13.534866 0.000000
								}
							}
						}
						JOINT HairA
						{
							OFFSET 9.713100 17.437393 1.467900
							CHANNELS 3 Xrotation Yrotation Zrotation
							JOINT HairA1
							{
								OFFSET 1.561200 -12.956299 3.590200
								CHANNELS 3 Xrotation Yrotation Zrotation
								End Site
								{
									OFFSET 0.000000 13.534866 0.000000
								}
							}
						}
						JOINT HairC
						{
							OFFSET 9.713100 17.437393 -1.325900
							CHANNELS 3 Xrotation Yrotation Zrotation
							JOINT HairC1
							{
								OFFSET 3.290300 -11.051193 1.062200
								CHANNELS 3 Xrotation Yrotation Zrotation
								End Site
								{
									OFFSET 0.000000 11.579437 0.000000
								}
							}
						}
					}
				}
				JOINT LeftShoulder
				{
					OFFSET 5.101800 15.108002 -2.763700
					CHANNELS 3 Xrotation Yrotation Zrotation
					JOINT LeftArm
					{
						OFFSET 9.825497 2.506317 -1.597400
						CHANNELS 3 Xrotation Yrotation Zrotation
						JOINT LeftForeArm
						{
							OFFSET 21.966244 0.000000 0.000000
							CHANNELS 3 Xrotation Yrotation Zrotation
							JOINT LeftHand
							{
								OFFSET 33.879036 0.000000 0.000000
								CHANNELS 3 Xrotation Yrotation Zrotation
								JOINT LeftHandThumb1
								{
									OFFSET 6.715286 -2.359680 3.363841
									CHANNELS 3 Xrotation Yrotation Zrotation
									JOINT LeftHandThumb2
									{
										OFFSET 2.507072 -1.447464 1.447461
										CHANNELS 3 Xrotation Yrotation Zrotation
										JOINT LeftHandThumb3
										{
											OFFSET 2.898338 -1.673355 1.673357
											CHANNELS 3 Xrotation Yrotation Zrotation
											End Site
											{
												OFFSET -0.295959 3.727692 -0.131651
											}
										}
									}
								}
								JOINT LeftHandIndex1
								{
									OFFSET 14.190811 -0.254547 3.840278
									CHANNELS 3 Xrotation Yrotation Zrotation
									JOINT LeftHandIndex2
									{
										OFFSET 3.551727 0.000000 -0.000000
										CHANNELS 3 Xrotation Yrotation Zrotation
										JOINT LeftHandIndex3
										{
											OFFSET 2.894196 0.000000 0.000000
											CHANNELS 3 Xrotation Yrotation Zrotation
											End Site
											{
												OFFSET -1.000603 2.690872 0.366626
											}
										}
									}
								}
								JOINT LeftHandMiddle1
								{
									OFFSET 13.776489 0.000000 0.000000
									CHANNELS 3 Xrotation Yrotation Zrotation
									JOINT LeftHandMiddle2
									{
										OFFSET 3.438232 0.000000 0.000000
										CHANNELS 3 Xrotation Yrotation Zrotation
										JOINT LeftHandMiddle3
										{
											OFFSET 3.691551 0.000000 0.000000
											CHANNELS 3 Xrotation Yrotation Zrotation
											End Site
											{
												OFFSET -1.082298 3.499527 0.457670
											}
										}
									}
								}
								JOINT LeftHandRing1
								{
									OFFSET 13.966164 -0.268127 -3.067488
									CHANNELS 3 Xrotation Yrotation Zrotation
									JOINT LeftHandRing2
									{
										OFFSET 3.162567 0.000000 0.000000
										CHANNELS 3 Xrotation Yrotation Zrotation
										JOINT LeftHandRing3
										{
											OFFSET 3.324348 0.000000 0.000000
											CHANNELS 3 Xrotation Yrotation Zrotation
											End Site
											{
												OFFSET -0.861900 3.184998 0.405154
											}
										}
									}
								}
								JOINT LeftHandPinky1
								{
									OFFSET 13.131393 -0.168503 -5.746925
									CHANNELS 3 Xrotation Yrotation Zrotation
									JOINT LeftHandPinky2
									{
										OFFSET 2.849182 0.000000 0.000000
										CHANNELS 3 Xrotation Yrotation Zrotation
										JOINT LeftHandPinky3
										{
											OFFSET 2.805038 0.000000 0.000000
											CHANNELS 3 Xrotation Yrotation Zrotation
											End Site
											{
												OFFSET -0.882500 2.642609 0.325652
											}
										}
									}
								}
							}
							JOINT Left_Sleeve
							{
								OFFSET 6.592125 -0.646545 0.805568
								CHANNELS 3 Xrotation Yrotation Zrotation
								End Site
								{
									OFFSET -0.000179 20.275787 -0.000000
								}
							}
						}
					}
				}
				JOINT RightShoulder
				{
					OFFSET -5.731700 15.108002 -2.763700
					CHANNELS 3 Xrotation Yrotation Zrotation
					JOINT RightArm
					{
						OFFSET -9.825497 2.506317 -1.597400
						CHANNELS 3 Xrotation Yrotation Zrotation
						JOINT RightForeArm
						{
							OFFSET -21.966242 0.000000 0.000000
							CHANNELS 3 Xrotation Yrotation Zrotation
							JOINT RightHand
							{
								OFFSET -33.879032 0.000000 0.000000
								CHANNELS 3 Xrotation Yrotation Zrotation
								JOINT RightHandThumb1
								{
									OFFSET -6.715286 -2.359680 3.363841
									CHANNELS 3 Xrotation Yrotation Zrotation
									JOINT RightHandThumb2
									{
										OFFSET -2.507072 -1.447464 1.447461
										CHANNELS 3 Xrotation Yrotation Zrotation
										JOINT RightHandThumb3
										{
											OFFSET -2.898338 -1.673355 1.673357
											CHANNELS 3 Xrotation Yrotation Zrotation
											End Site
											{
												OFFSET 0.295959 3.727692 -0.131651
											}
										}
									}
								}
								JOINT RightHandIndex1
								{
									OFFSET -14.190811 -0.254547 3.840278
									CHANNELS 3 Xrotation Yrotation Zrotation
									JOINT RightHandIndex2
									{
										OFFSET -3.551727 0.000000 -0.000000
										CHANNELS 3 Xrotation Yrotation Zrotation
										JOINT RightHandIndex3
										{
											OFFSET -2.894196 0.000000 0.000000
											CHANNELS 3 Xrotation Yrotation Zrotation
											End Site
											{
												OFFSET 1.000603 2.690872 0.366626
											}
										}
									}
								}
								JOINT RightHandMiddle1
								{
									OFFSET -13.776489 0.000000 0.000000
									CHANNELS 3 Xrotation Yrotation Zrotation
									JOINT RightHandMiddle2
									{
										OFFSET -3.438232 0.000000 0.000000
										CHANNELS 3 Xrotation Yrotation Zrotation
										JOINT RightHandMiddle3
										{
											OFFSET -3.691551 0.000000 0.000000
											CHANNELS 3 Xrotation Yrotation Zrotation
											End Site
											{
												OFFSET 1.082298 3.499527 0.457670
											}
										}
									}
								}
								JOINT RightHandRing1
								{
									OFFSET -13.966164 -0.268127 -3.067488
									CHANNELS 3 Xrotation Yrotation Zrotation
									JOINT RightHandRing2
									{
										OFFSET -3.162567 0.000000 0.000000
										CHANNELS 3 Xrotation Yrotation Zrotation
										JOINT RightHandRing3
										{
											OFFSET -3.324348 0.000000 0.000000
											CHANNELS 3 Xrotation Yrotation Zrotation
											End Site
											{
												OFFSET 0.861900 3.184998 0.405154
											}
										}
									}
								}
								JOINT RightHandPinky1
								{
									OFFSET -13.131393 -0.168503 -5.746925
									CHANNELS 3 Xrotation Yrotation Zrotation
									JOINT RightHandPinky2
									{
										OFFSET -2.849182 0.000000 0.000000
										CHANNELS 3 Xrotation Yrotation Zrotation
										JOINT RightHandPinky3
										{
											OFFSET -2.805038 0.000000 0.000000
											CHANNELS 3 Xrotation Yrotation Zrotation
											End Site
											{
												OFFSET 0.882500 2.642609 0.325652
											}
										}
									}
								}
							}
							JOINT Right_Sleeve
							{
								OFFSET -6.592125 -0.646545 0.805568
								CHANNELS 3 Xrotation Yrotation Zrotation
								End Site
								{
									OFFSET 0.000179 20.275787 -0.000000
								}
							}
						}
					}
				}
				JOINT Bind_Right_JacketString
				{
					OFFSET -3.534800 11.969597 7.200700
					CHANNELS 3 Xrotation Yrotation Zrotation
					JOINT Bind_Right_JacketString1
					{
						OFFSET -0.319900 -6.102600 2.794100
						CHANNELS 3 Xrotation Yrotation Zrotation
						End Site
						{
							OFFSET 0.000000 6.719452 0.000000
						}
					}
				}
				JOINT Bind_Left_JacketString
				{
					OFFSET 2.904800 11.969597 7.200700
					CHANNELS 3 Xrotation Yrotation Zrotation
					JOINT Bind_Left_JacketString1
					{
						OFFSET 0.364800 -5.904503 3.186800
						CHANNELS 3 Xrotation Yrotation Zrotation
						End Site
						{
							OFFSET 0.000000 6.719513 0.000000
						}
					}
				}
				JOINT HairE
				{
					OFFSET 5.915200 17.612701 -11.592200
					CHANNELS 3 Xrotation Yrotation Zrotation
					JOINT HairE1
					{
						OFFSET 0.289200 -7.171898 -1.284500
						CHANNELS 3 Xrotation Yrotation Zrotation
						End Site
						{
							OFFSET 0.000000 7.291756 0.000000
						}
					}
				}
				JOINT HairF
				{
					OFFSET -0.864800 17.612701 -11.592200
					CHANNELS 3 Xrotation Yrotation Zrotation
					JOINT HairF1
					{
						OFFSET 0.000000 -14.087097 -2.127501
						CHANNELS 3 Xrotation Yrotation Zrotation
						End Site
						{
							OFFSET 0.000000 14.246841 0.000000
						}
					}
				}
				JOINT HairG
				{
					OFFSET -8.087700 17.612701 -11.592200
					CHANNELS 3 Xrotation Yrotation Zrotation
					JOINT HairG1
					{
						OFFSET -0.293600 -6.081398 -0.910100
						CHANNELS 3 Xrotation Yrotation Zrotation
						End Site
						{
							OFFSET 0.000000 6.156120 0.000000
						}
					}
				}
			}
		}
	}
	JOINT Pouch
	{
		OFFSET 0.000000 4.394501 10.847300
		CHANNELS 3 Xrotation Yrotation Zrotation
		End Site
		{
			OFFSET 0.000000 21.880577 0.000000
		}
	}
	JOINT Bag
	{
		OFFSET -13.229000 4.813004 -0.593300
		CHANNELS 3 Xrotation Yrotation Zrotation
		End Site
		{
			OFFSET 0.000000 21.880577 0.000000
		}
	}
	JOINT OccupyGuyFacialAnim_Joint
	{
		OFFSET 1.000000 -70.206398 -1.655000
		CHANNELS 3 Xrotation Yrotation Zrotation
		End Site
		{
			OFFSET 0.000000 21.880577 0.000000
		}
	}
}
MOTION
Frames: 4
Frame Time: 0.033333
0.089046 63.599068 1.183298 20.164716 -10.128686 6.059170 -0.000001 0.000000 -0.000000 -62.471977 8.703697 7.605703 109.292002 1.590196 0.991071 17.830267 2.104385 20.994834 -0.000000 -0.000000 -0.000002 -0.000001 -0.000000 -0.000000 -19.103218 1.447998 -7.067027 44.060215 7.736612 -4.454426 -39.511753 -1.214982 2.647942 -0.000000 0.000000 0.000000 -0.000000 0.000000 0.000000 28.383056 5.001444 -5.801262 2.094691 1.826381 -0.652188 2.078447 1.862281 -0.743078 -10.552109 1.482589 -0.774705 -26.263411 -3.238838 -5.520690 0.000001 -0.000000 0.000000 0.000001 -0.000000 0.000000 0.000001 -0.000000 0.000000 0.000001 -0.000000 0.000000 -0.000001 0.000000 0.000000 0.000001 -0.000000 0.000000 -0.000001 0.000000 0.000000 0.000001 -0.000000 0.000000 0.000001 -0.000000 0.000000 4.698805 9.230972 -16.197210 -6.899329 -15.126156 -58.978964 -20.360010 -53.630567 -9.105401 -1.310204 -26.246035 -6.681041 -2.540171 0.099826 12.393458 16.574450 12.235479 -5.596494 -0.000002 0.000005 -0.000003 -4.292598 -6.224033 -38.907698 0.002775 -4.398885 -42.159681 0.000003 -0.000002 -0.000000 -0.650925 -2.111459 -38.946162 -0.044046 -4.883227 -50.793890 0.000005 -0.000001 -0.000001 -0.586409 0.231613 -62.614571 -0.855577 -0.960350 -44.526362 0.000003 -0.000000 -0.000000 -5.907829 -5.340932 -53.176270 -0.044831 -0.065939 -73.346676 -0.000001 -0.000002 0.000001 0.000000 -0.000001 -0.000001 -0.115437 12.230488 -3.663391 -29.978858 2.260710 57.582586 -59.497320 77.081635 55.867478 -1.327176 14.725924 10.431536 24.918338 -21.323388 30.343033 9.041921 8.262092 -18.001807 0.000001 0.000001 -0.000002 -0.063505 -3.017259 61.424397 0.006459 4.395167 66.609180 -0.000000 0.000000 -0.000005 -1.221729 -0.129490 68.273676 -0.078687 4.899248 84.501775 -0.000001 -0.000001 0.000001 0.882081 -4.623025 79.192662 -0.721569 1.141056 73.254359 -0.000001 -0.000001 -0.000001 -3.962371 0.099754 86.766796 -0.027288 0.052905 54.416090 -0.000001 0.000001 0.000004 0.000001 -0.000001 0.000000 0.000002 -0.000000 -0.000000 0.000000 -0.000000 -0.000000 0.000002 -0.000000 -0.000000 0.000002 -0.000000 -0.000000 0.000002 -0.000000 -0.000000 0.000000 -0.000000 -0.000000 0.000002 -0.000000 -0.000000 0.000002 -0.000000 -0.000000 0.000002 -0.000000 -0.000000 0.000000 -0.000000 -0.000000 -0.000001 0.000000 -0.000000 -0.000001 0.000000 -0.000000 -0.000001 0.000000 -0.000000 
0.362256 64.469505 10.550487 19.836280 -10.753209 7.878464 -0.000000 -0.000000 0.000000 -71.376713 9.858865 7.512201 107.860018 6.137948 1.705723 23.306419 -0.386854 16.841204 -0.000001 0.000000 0.000002 0.000002 0.000000 0.000000 -2.682415 -4.874083 -11.830402 25.046459 13.170924 -5.010959 -32.057196 -1.526449 3.995833 -0.000001 -0.000000 0.000000 0.000001 -0.000000 0.000000 28.067848 11.459383 -10.591496 2.396473 3.873574 -0.655756 2.306238 3.888320 -0.842652 -7.909768 -1.734801 0.605868 -26.460911 -9.696581 -5.821430 -0.000001 0.000000 0.000000 -0.000001 0.000000 0.000000 -0.000001 0.000000 0.000000 -0.000001 0.000000 -0.000000 -0.000002 0.000000 -0.000000 -0.000001 0.000000 -0.000000 -0.000002 0.000000 -0.000000 -0.000001 0.000000 0.000000 -0.000001 0.000000 0.000000 3.375217 6.344922 -12.429109 6.603388 -8.114561 -62.453993 -20.211535 -55.711008 -11.793407 -0.843643 -22.609393 -3.613706 -2.540170 0.099825 12.393459 16.574450 12.235479 -5.596495 -0.000001 0.000001 0.000001 -4.292598 -6.224031 -38.907698 0.002777 -4.398889 -42.159684 0.000003 0.000000 -0.000002 -0.650926 -2.111461 -38.946155 -0.044045 -4.883230 -50.793894 -0.000002 -0.000000 -0.000003 -0.586407 0.231609 -62.614571 -0.855574 -0.960349 -44.526365 0.000002 0.000000 0.000001 -5.907828 -5.340927 -53.176267 -0.044835 -0.065932 -73.346676 0.000004 0.000000 0.000001 -0.000001 -0.000000 -0.000000 2.777595 -0.151120 1.536075 -36.268598 10.480886 53.209219 -50.965454 70.037183 45.921599 -1.104128 12.731772 12.083009 24.918337 -21.323384 30.343037 9.041913 8.262096 -18.001805 -0.000002 0.000000 -0.000003 -0.063504 -3.017260 61.424403 0.006458 4.395166 66.609173 -0.000000 -0.000001 0.000004 -1.221729 -0.129489 68.273669 -0.078687 4.899246 84.501769 -0.000000 0.000001 -0.000002 0.882081 -4.623025 79.192662 -0.721568 1.141055 73.254359 0.000000 -0.000000 -0.000003 -3.962368 0.099753 86.766796 -0.027289 0.052905 54.416090 -0.000000 0.000001 0.000002 0.000001 0.000002 -0.000000 0.000002 -0.000000 0.000000 0.000002 -0.000000 -0.000000 0.000002 -0.000000 -0.000000 0.000002 -0.000000 -0.000000 0.000002 -0.000000 0.000000 0.000002 -0.000000 -0.000000 0.000002 -0.000000 -0.000000 0.000002 -0.000000 -0.000000 0.000002 -0.000000 0.000000 0.000002 -0.000000 -0.000000 -0.000000 -0.000000 0.000000 -0.000000 -0.000000 0.000000 -0.000000 -0.000000 0.000000 
0.404011 65.295715 19.510538 20.688115 -9.989582 8.371928 -0.000001 -0.000002 0.000000 -80.939586 9.643108 8.468161 104.187644 8.114088 2.312214 29.345276 -1.415442 13.909012 -0.000003 -0.000001 -0.000001 -0.000000 -0.000000 -0.000001 0.878029 -10.258976 -15.701123 23.031966 13.254112 -2.172280 -18.059538 -1.436458 7.431876 -0.000001 0.000000 -0.000000 0.000001 0.000001 -0.000000 26.186124 16.362323 -13.221379 2.558772 5.239390 -0.310587 2.324937 5.218009 -0.537019 -4.748305 -4.291734 1.791370 -26.806071 -14.814691 -6.628197 0.000000 -0.000000 0.000000 0.000000 -0.000000 0.000000 0.000000 -0.000000 0.000000 0.000000 -0.000000 -0.000000 0.000000 0.000000 0.000000 0.000000 -0.000000 -0.000000 0.000000 0.000000 0.000000 0.000000 -0.000000 0.000000 0.000000 -0.000000 0.000000 2.254334 1.883684 -9.787029 18.561553 0.705801 -64.398889 -24.855185 -58.560246 -20.746170 -0.360396 -20.553923 -0.966643 -2.540172 0.099824 12.393461 16.574448 12.235475 -5.596492 0.000000 -0.000000 -0.000002 -4.292600 -6.224031 -38.907698 0.002777 -4.398889 -42.159684 -0.000001 0.000001 0.000004 -0.650925 -2.111460 -38.946159 -0.044045 -4.883229 -50.793887 0.000002 0.000000 0.000001 -0.586409 0.231608 -62.614578 -0.855576 -0.960346 -44.526362 0.000003 -0.000000 -0.000000 -5.907830 -5.340932 -53.176274 -0.044833 -0.065934 -73.346683 -0.000002 -0.000002 -0.000001 -0.000000 -0.000000 -0.000001 6.973259 -9.986568 7.386365 -39.773769 20.694633 47.356447 -48.683386 61.090223 42.339137 -0.920596 12.732466 11.683220 24.918338 -21.323384 30.343040 9.041919 8.262081 -18.001802 0.000002 -0.000000 0.000003 -0.063505 -3.017260 61.424397 0.006457 4.395167 66.609180 -0.000001 -0.000001 0.000003 -1.221730 -0.129488 68.273676 -0.078689 4.899248 84.501769 -0.000000 -0.000003 -0.000001 0.882081 -4.623023 79.192662 -0.721570 1.141053 73.254359 0.000001 -0.000002 -0.000001 -3.962367 0.099751 86.766796 -0.027288 0.052905 54.416093 0.000000 0.000000 -0.000001 -0.000001 0.000000 -0.000001 0.000003 0.000001 -0.000000 0.000003 0.000001 -0.000000 0.000003 0.000001 -0.000000 0.000003 0.000001 -0.000000 0.000003 0.000001 -0.000000 0.000003 0.000001 -0.000000 0.000003 0.000001 -0.000000 0.000003 0.000001 -0.000000 0.000003 0.000001 -0.000000 0.000003 0.000001 -0.000000 -0.000001 -0.000002 0.000000 -0.000001 -0.000002 0.000000 -0.000001 -0.000002 0.000000 
0.392820 66.263405 28.188738 21.798383 -8.535091 7.688394 0.000002 0.000001 -0.000000 -85.452859 8.452371 8.039729 91.631011 7.491404 2.391275 26.371973 -2.000606 10.318792 -0.000001 0.000001 0.000001 -0.000003 0.000000 -0.000000 6.858080 -13.475037 -14.936621 14.351237 8.698632 -2.188280 3.496963 0.192710 11.764711 -0.000001 -0.000000 0.000001 -0.000003 0.000000 -0.000001 23.709666 19.001047 -13.539816 2.653428 5.871225 0.072174 2.354683 5.814470 -0.155773 -2.354279 -5.851163 2.625516 -27.310004 -18.020911 -6.908849 0.000003 -0.000000 -0.000000 0.000003 -0.000000 -0.000000 0.000003 -0.000000 -0.000000 0.000003 -0.000000 -0.000000 0.000003 0.000000 0.000000 0.000003 -0.000000 -0.000000 0.000003 0.000000 0.000000 0.000003 -0.000000 -0.000000 0.000003 -0.000000 -0.000000 1.525357 -0.604339 -8.931674 26.838141 4.817008 -64.322664 -30.917230 -60.256755 -29.891360 0.142834 -19.778717 1.561679 -2.540173 0.099826 12.393458 16.574448 12.235475 -5.596500 0.000000 0.000001 -0.000002 -4.292599 -6.224030 -38.907705 0.002775 -4.398889 -42.159681 0.000000 -0.000002 0.000001 -0.650927 -2.111460 -38.946155 -0.044047 -4.883227 -50.793890 0.000003 -0.000002 -0.000001 -0.586410 0.231610 -62.614578 -0.855578 -0.960349 -44.526362 0.000001 -0.000001 -0.000000 -5.907828 -5.340930 -53.176270 -0.044833 -0.065935 -73.346676 0.000000 -0.000004 0.000002 -0.000002 -0.000000 0.000001 11.025026 -15.311894 12.475833 -40.389248 28.811292 41.173944 -48.841020 53.813100 41.052845 -1.002384 14.128456 10.333606 24.918335 -21.323388 30.343037 9.041918 8.262091 -18.001804 -0.000005 0.000000 -0.000001 -0.063504 -3.017260 61.424397 0.006456 4.395165 66.609173 -0.000001 0.000000 -0.000001 -1.221732 -0.129490 68.273669 -0.078687 4.899247 84.501769 -0.000000 -0.000000 -0.000003 0.882078 -4.623023 79.192662 -0.721568 1.141055 73.254359 -0.000001 -0.000002 -0.000003 -3.962368 0.099751 86.766803 -0.027290 0.052904 54.416097 -0.000002 0.000003 -0.000001 -0.000002 -0.000002 0.000002 -0.000002 0.000001 -0.000000 -0.000003 0.000001 0.000000 -0.000002 0.000001 -0.000001 -0.000002 0.000001 -0.000001 -0.000002 0.000001 -0.000000 -0.000003 0.000001 -0.000000 -0.000002 0.000001 -0.000001 -0.000002 0.000001 -0.000001 -0.000002 0.000001 -0.000000 -0.000003 0.000001 -0.000000 0.000002 0.000001 -0.000000 0.000002 0.000001 -0.000000 0.000002 0.000001 -0.000000 
